<svg xmlns="http://www.w3.org/2000/svg" viewBox="0 0 1200 630" role="img"><title>Data agent in ChatGPT Work</title><desc>Connected databases feed a governed agent that turns a question into a dashboard and an approved action.</desc><style>.dash{animation:dash 4s ease-in-out infinite}.dot{animation:dot 1.8s ease-in-out infinite}@keyframes dash{50%{transform:translateY(-10px)}}@keyframes dot{50%{opacity:.25}}text{font-family:Inter,Arial,sans-serif}</style><rect width="1200" height="630" rx="34" fill="#eef8ff"/><g fill="#2778c9" class="dot"><circle cx="160" cy="265" r="25"/><circle cx="160" cy="360" r="25"/><circle cx="255" cy="265" r="25"/><circle cx="255" cy="360" r="25"/></g><path d="M190 265L470 315M190 360L470 315M285 265L470 315M285 360L470 315" stroke="#6cb6ee" stroke-width="5" stroke-dasharray="12 12"/><circle cx="560" cy="315" r="88" fill="#1867ad" class="dot"/><text x="560" y="307" fill="#fff" font-size="30" text-anchor="middle">Data</text><text x="560" y="343" fill="#b9e4ff" font-size="20" text-anchor="middle">agent</text><path d="M648 315H760" stroke="#1d9a75" stroke-width="6" stroke-dasharray="16 14"/><g class="dash"><rect x="760" y="160" width="330" height="300" rx="22" fill="#fff" stroke="#1d9a75" stroke-width="4"/><path d="M820 380V285M890 380V230M960 380V320M1030 380V260" stroke="#1d9a75" stroke-width="28"/><path d="M810 400H1050" stroke="#92cfc1" stroke-width="4"/></g><text x="100" y="88" fill="#1867ad" font-size="24">OPENAI · CHATGPT WORK · 2026-09-10</text><text x="100" y="565" fill="#3a6d91" font-size="22">从自然语言问题到可分享仪表盘，再到获批动作</text></svg>